<?xml version="1.0" encoding="UTF-8" standalone="no"?>
<!DOCTYPE svg PUBLIC "-//W3C//DTD SVG 1.1//EN" "http://www.w3.org/Graphics/SVG/1.1/DTD/svg11.dtd">
<svg width="100%" height="100%" viewBox="0 0 1920 1920" version="1.1" xmlns="http://www.w3.org/2000/svg" xmlns:xlink="http://www.w3.org/1999/xlink" xml:space="preserve" xmlns:serif="http://www.serif.com/" style="fill-rule:evenodd;clip-rule:evenodd;stroke-linecap:round;stroke-linejoin:round;stroke-miterlimit:1.5;">
    <g transform="matrix(1.91594,0,0,1.91594,-979.161,-600.414)">
        <g transform="matrix(288,0,0,288,587.232,733.388)">
            <path d="M0.292,0.012C0.244,0.012 0.202,0.001 0.165,-0.022C0.129,-0.045 0.1,-0.077 0.08,-0.117C0.059,-0.156 0.049,-0.202 0.049,-0.252C0.049,-0.303 0.059,-0.348 0.08,-0.388C0.1,-0.428 0.129,-0.459 0.166,-0.481C0.203,-0.504 0.245,-0.516 0.293,-0.516C0.333,-0.516 0.367,-0.508 0.397,-0.492C0.427,-0.476 0.451,-0.455 0.467,-0.426L0.467,-0.72L0.567,-0.72L0.567,-0L0.478,-0L0.468,-0.078C0.457,-0.063 0.444,-0.048 0.428,-0.034C0.412,-0.02 0.393,-0.009 0.37,-0.001C0.348,0.008 0.322,0.012 0.292,0.012ZM0.308,-0.075C0.34,-0.075 0.367,-0.082 0.391,-0.097C0.415,-0.112 0.433,-0.133 0.447,-0.159C0.46,-0.186 0.466,-0.217 0.466,-0.252C0.466,-0.287 0.46,-0.318 0.447,-0.345C0.433,-0.371 0.415,-0.392 0.391,-0.406C0.367,-0.421 0.34,-0.429 0.308,-0.429C0.278,-0.429 0.251,-0.421 0.227,-0.406C0.203,-0.392 0.185,-0.371 0.171,-0.345C0.158,-0.318 0.151,-0.287 0.151,-0.252C0.151,-0.217 0.158,-0.186 0.171,-0.159C0.185,-0.133 0.203,-0.112 0.227,-0.097C0.251,-0.082 0.278,-0.075 0.308,-0.075Z" style="fill:white;fill-rule:nonzero;"/>
        </g>
        <g transform="matrix(288,0,0,288,755.896,733.388)">
            <path d="M0.296,0.012C0.248,0.012 0.205,0.001 0.168,-0.021C0.131,-0.043 0.102,-0.073 0.081,-0.113C0.06,-0.152 0.049,-0.198 0.049,-0.25C0.049,-0.303 0.059,-0.35 0.08,-0.389C0.101,-0.429 0.13,-0.46 0.168,-0.482C0.205,-0.504 0.249,-0.516 0.298,-0.516C0.347,-0.516 0.39,-0.505 0.425,-0.483C0.461,-0.461 0.488,-0.432 0.507,-0.395C0.526,-0.359 0.536,-0.319 0.536,-0.275C0.536,-0.268 0.535,-0.261 0.535,-0.254C0.535,-0.246 0.535,-0.238 0.534,-0.228L0.122,-0.228L0.122,-0.299L0.436,-0.299C0.434,-0.341 0.42,-0.373 0.394,-0.397C0.368,-0.421 0.336,-0.433 0.297,-0.433C0.27,-0.433 0.245,-0.426 0.222,-0.414C0.2,-0.402 0.181,-0.384 0.168,-0.36C0.154,-0.337 0.147,-0.307 0.147,-0.271L0.147,-0.243C0.147,-0.205 0.154,-0.174 0.167,-0.149C0.181,-0.123 0.199,-0.104 0.222,-0.091C0.245,-0.078 0.269,-0.071 0.296,-0.071C0.328,-0.071 0.355,-0.078 0.375,-0.092C0.396,-0.106 0.411,-0.125 0.421,-0.149L0.521,-0.149C0.513,-0.119 0.498,-0.091 0.477,-0.067C0.457,-0.043 0.431,-0.023 0.401,-0.009C0.371,0.005 0.336,0.012 0.296,0.012Z" style="fill:white;fill-rule:nonzero;"/>
        </g>
        <g transform="matrix(288,0,0,288,908.197,733.388)">
            <path d="M0.068,0.22L0.068,-0.504L0.158,-0.504L0.168,-0.426C0.179,-0.441 0.192,-0.456 0.208,-0.47C0.224,-0.484 0.243,-0.495 0.266,-0.503C0.288,-0.511 0.314,-0.516 0.344,-0.516C0.392,-0.516 0.434,-0.504 0.47,-0.481C0.507,-0.458 0.535,-0.427 0.555,-0.387C0.576,-0.347 0.586,-0.302 0.586,-0.251C0.586,-0.2 0.576,-0.155 0.555,-0.115C0.535,-0.076 0.506,-0.045 0.47,-0.022C0.433,0.001 0.391,0.012 0.343,0.012C0.303,0.012 0.269,0.004 0.239,-0.012C0.209,-0.027 0.185,-0.049 0.168,-0.077L0.168,0.22L0.068,0.22ZM0.327,-0.075C0.357,-0.075 0.385,-0.082 0.408,-0.097C0.432,-0.112 0.451,-0.132 0.464,-0.159C0.478,-0.185 0.485,-0.216 0.485,-0.252C0.485,-0.287 0.478,-0.318 0.464,-0.344C0.451,-0.371 0.432,-0.392 0.408,-0.406C0.385,-0.421 0.357,-0.429 0.327,-0.429C0.296,-0.429 0.268,-0.421 0.244,-0.406C0.22,-0.392 0.202,-0.371 0.189,-0.344C0.175,-0.318 0.169,-0.287 0.169,-0.252C0.169,-0.216 0.175,-0.185 0.189,-0.159C0.202,-0.132 0.22,-0.112 0.244,-0.097C0.268,-0.082 0.296,-0.075 0.327,-0.075Z" style="fill:white;fill-rule:nonzero;"/>
        </g>
        <g transform="matrix(288,0,0,288,1076.78,733.388)">
            <path d="M0.235,0.012C0.194,0.012 0.159,0.005 0.132,-0.009C0.105,-0.023 0.085,-0.042 0.071,-0.066C0.058,-0.089 0.051,-0.115 0.051,-0.142C0.051,-0.175 0.06,-0.204 0.077,-0.227C0.094,-0.251 0.119,-0.269 0.151,-0.282C0.183,-0.294 0.221,-0.301 0.267,-0.301L0.397,-0.301C0.397,-0.33 0.393,-0.354 0.384,-0.374C0.376,-0.393 0.363,-0.408 0.346,-0.418C0.328,-0.427 0.307,-0.432 0.281,-0.432C0.251,-0.432 0.226,-0.425 0.204,-0.411C0.182,-0.396 0.169,-0.375 0.164,-0.347L0.064,-0.347C0.068,-0.383 0.08,-0.413 0.1,-0.438C0.121,-0.463 0.147,-0.482 0.179,-0.495C0.211,-0.509 0.245,-0.516 0.281,-0.516C0.328,-0.516 0.368,-0.507 0.4,-0.491C0.432,-0.474 0.456,-0.45 0.472,-0.42C0.489,-0.39 0.497,-0.354 0.497,-0.312L0.497,-0L0.41,-0L0.402,-0.085C0.395,-0.072 0.386,-0.059 0.376,-0.047C0.366,-0.035 0.354,-0.025 0.34,-0.016C0.327,-0.007 0.311,-0.001 0.294,0.004C0.276,0.009 0.256,0.012 0.235,0.012ZM0.254,-0.069C0.275,-0.069 0.295,-0.074 0.312,-0.082C0.329,-0.091 0.344,-0.103 0.356,-0.118C0.369,-0.133 0.378,-0.15 0.384,-0.169C0.391,-0.187 0.395,-0.207 0.395,-0.227L0.395,-0.23L0.276,-0.23C0.248,-0.23 0.224,-0.227 0.207,-0.22C0.189,-0.213 0.176,-0.203 0.168,-0.191C0.16,-0.179 0.156,-0.165 0.156,-0.149C0.156,-0.133 0.16,-0.118 0.168,-0.107C0.175,-0.095 0.186,-0.085 0.201,-0.079C0.216,-0.073 0.233,-0.069 0.254,-0.069Z" style="fill:white;fill-rule:nonzero;"/>
        </g>
        <g transform="matrix(288,0,0,288,1222.89,733.388)">
            <path d="M0.068,-0L0.068,-0.504L0.158,-0.504L0.167,-0.409C0.178,-0.431 0.193,-0.45 0.211,-0.466C0.229,-0.482 0.25,-0.494 0.275,-0.503C0.299,-0.511 0.327,-0.516 0.358,-0.516L0.358,-0.41L0.322,-0.41C0.301,-0.41 0.281,-0.408 0.263,-0.403C0.244,-0.397 0.228,-0.389 0.213,-0.377C0.199,-0.365 0.188,-0.349 0.18,-0.328C0.172,-0.308 0.168,-0.282 0.168,-0.251L0.168,-0L0.068,-0Z" style="fill:white;fill-rule:nonzero;"/>
        </g>
        <g transform="matrix(288,0,0,288,1318.51,733.388)">
            <path d="M0.276,-0C0.244,-0 0.216,-0.005 0.193,-0.015C0.17,-0.025 0.152,-0.041 0.139,-0.065C0.126,-0.088 0.12,-0.12 0.12,-0.16L0.12,-0.419L0.033,-0.419L0.033,-0.504L0.12,-0.504L0.132,-0.63L0.22,-0.63L0.22,-0.504L0.363,-0.504L0.363,-0.419L0.22,-0.419L0.22,-0.159C0.22,-0.131 0.226,-0.111 0.238,-0.101C0.25,-0.091 0.27,-0.085 0.3,-0.085L0.358,-0.085L0.358,-0L0.276,-0Z" style="fill:white;fill-rule:nonzero;"/>
        </g>
    </g>
    <g transform="matrix(1.10754,0,0,1.10754,-6.41033,-112.07)">
        <g>
            <g transform="matrix(1,0,0,1,-643.081,-63.7224)">
                <circle cx="1027.7" cy="1308.08" r="222.543" style="fill:rgb(252,204,10);"/>
            </g>
            <g transform="matrix(1,0,0,1,-180.793,54.0552)">
                <g transform="matrix(288,0,0,288,455.666,1295.07)">
                    <path d="M0.066,-0L0.066,-0.728L0.232,-0.728L0.462,-0.359C0.473,-0.34 0.485,-0.32 0.497,-0.298C0.51,-0.276 0.522,-0.251 0.534,-0.224C0.547,-0.197 0.559,-0.167 0.572,-0.133L0.557,-0.133C0.554,-0.16 0.552,-0.189 0.551,-0.219C0.549,-0.25 0.547,-0.279 0.546,-0.307C0.545,-0.335 0.544,-0.359 0.544,-0.378L0.544,-0.728L0.696,-0.728L0.696,-0L0.53,-0L0.321,-0.334C0.306,-0.359 0.291,-0.383 0.278,-0.407C0.265,-0.43 0.252,-0.457 0.238,-0.485C0.223,-0.514 0.207,-0.548 0.187,-0.587L0.206,-0.587C0.208,-0.552 0.21,-0.519 0.212,-0.486C0.214,-0.454 0.215,-0.425 0.217,-0.399C0.218,-0.372 0.218,-0.351 0.218,-0.334L0.218,-0L0.066,-0Z" style="fill-rule:nonzero;"/>
                </g>
            </g>
        </g>
        <g>
            <g transform="matrix(1,0,0,1,-160.327,-63.7224)">
                <circle cx="1027.7" cy="1308.08" r="222.543" style="fill:rgb(185,51,173);stroke:black;stroke-width:0.9px;"/>
            </g>
            <g transform="matrix(1,0,0,1,306.453,54.0552)">
                <g transform="matrix(288,0,0,288,455.666,1295.07)">
                    <path d="M0.293,-0L0.293,-0.274L0.024,-0.728L0.198,-0.728L0.321,-0.501C0.334,-0.478 0.345,-0.455 0.355,-0.433C0.365,-0.411 0.375,-0.384 0.385,-0.353L0.353,-0.353C0.363,-0.384 0.372,-0.411 0.382,-0.434C0.391,-0.456 0.402,-0.479 0.414,-0.501L0.533,-0.728L0.707,-0.728L0.442,-0.274L0.442,-0L0.293,-0Z" style="fill:white;fill-rule:nonzero;"/>
                </g>
            </g>
        </g>
        <g>
            <g transform="matrix(1,0,0,1,332.962,-63.7224)">
                <circle cx="1027.7" cy="1308.08" r="222.543" style="fill:rgb(0,57,166);"/>
            </g>
            <g transform="matrix(1,0,0,1,797.964,54.0552)">
                <g transform="matrix(288,0,0,288,455.666,1295.07)">
                    <path d="M0.384,0.01C0.319,0.01 0.261,-0.005 0.211,-0.034C0.16,-0.064 0.119,-0.106 0.09,-0.162C0.061,-0.217 0.046,-0.285 0.046,-0.363C0.046,-0.443 0.061,-0.51 0.09,-0.566C0.12,-0.622 0.16,-0.664 0.211,-0.693C0.262,-0.723 0.32,-0.737 0.384,-0.737C0.425,-0.737 0.464,-0.732 0.499,-0.72C0.535,-0.708 0.567,-0.692 0.594,-0.669C0.622,-0.647 0.644,-0.62 0.662,-0.588C0.68,-0.556 0.691,-0.52 0.697,-0.479L0.546,-0.479C0.543,-0.499 0.536,-0.516 0.527,-0.532C0.518,-0.548 0.506,-0.561 0.492,-0.572C0.479,-0.583 0.463,-0.591 0.445,-0.597C0.427,-0.602 0.408,-0.605 0.387,-0.605C0.349,-0.605 0.316,-0.596 0.287,-0.577C0.259,-0.558 0.237,-0.53 0.221,-0.494C0.205,-0.458 0.197,-0.415 0.197,-0.363C0.197,-0.311 0.205,-0.267 0.221,-0.231C0.237,-0.195 0.259,-0.168 0.288,-0.15C0.316,-0.132 0.349,-0.123 0.386,-0.123C0.407,-0.123 0.426,-0.125 0.444,-0.131C0.462,-0.137 0.478,-0.145 0.492,-0.156C0.506,-0.167 0.518,-0.18 0.527,-0.196C0.536,-0.211 0.543,-0.229 0.547,-0.249L0.697,-0.249C0.693,-0.215 0.683,-0.183 0.667,-0.152C0.651,-0.121 0.63,-0.093 0.603,-0.069C0.576,-0.045 0.544,-0.025 0.508,-0.011C0.471,0.003 0.43,0.01 0.384,0.01Z" style="fill:white;fill-rule:nonzero;"/>
                </g>
            </g>
        </g>
    </g>
</svg>
